:version 1.10
:name ASF
:units
  mass 1
  length 1
  angle deg
:documentation
  ASF file generated by Kaydara
:root
  axis xyz
  order  tx ty tz rx ry rz
  position 0 0 0
  orientation 0 0 0
:bonedata
  begin
    id 1
    name RightUpLegDummy
    direction -0.65628 -0.754516 0.00165102
    length 4.76918
    axis 0 0 0 xyz
  end
  begin
    id 2
    name RightUpLeg
    direction -0.145584 -0.923362 0.355256
    length 17.9961
    axis -24.7611 -13.1006 1.78531 xyz
    dof rx ry rz
  end
  begin
    id 3
    name RightLeg
    direction 0.263379 0.172355 -0.949171
    length 13.3386
    axis 89.6202 -21.1929 12.3855 xyz
    dof rx ry rz
  end
  begin
    id 4
    name RightFoot
    direction 0.224283 -0.968777 -0.105675
    length 5.86697
    axis 56.995 -39.6905 17.3365 xyz
    dof rx ry rz
  end
  begin
    id 5
    name RightToes
    direction -0.0806345 -0.9037 0.420506
    length 4.75197
    axis 146.825 -39.7828 17.6019 xyz
    dof rx ry rz
  end
  begin
    id 6
    name SpineDummy
    direction -3.39852e-014 1 9.33296e-014
    length 8.13779
    axis 0 0 0 xyz
  end
  begin
    id 7
    name Spine
    direction -0.156609 0.733703 0.661176
    length 7.14978
    axis 41.2365 5.68757 17.0844 xyz
    dof rx ry rz
  end
  begin
    id 8
    name Spine1
    direction 0 0 0
    length 0
    axis 42.8809 47.8308 -3.36039 xyz
    dof rx ry rz
  end
  begin
    id 9
    name HEadDummy
    direction 0.546431 0.701947 0.456819
    length 3.55512
    axis 42.8809 47.8308 -3.36039 xyz
  end
  begin
    id 10
    name HEad
    direction 0.23444 0.828559 0.508457
    length 7.35827
    axis 51.1864 49.2662 27.4903 xyz
    dof rx ry rz
  end
  begin
    id 11
    name LeftShoulder1Dummy
    direction 0.431183 0.475873 -0.766568
    length 2.49352
    axis 42.8809 47.8308 -3.36039 xyz
  end
  begin
    id 12
    name LeftShoulder1
    direction 0.268187 -0.383402 -0.883786
    length 4.48604
    axis -119.517 0.106469 35.1736 xyz
    dof rx ry rz
  end
  begin
    id 13
    name LeftArm
    direction 0.380567 -0.703221 -0.600541
    length 10.1142
    axis -5.41825 36.2925 7.8293 xyz
    dof rx ry rz
  end
  begin
    id 14
    name LeftForeArm
    direction 0.541071 -0.732356 -0.413396
    length 9.39839
    axis 4.65387 33.7604 7.81644 xyz
    dof rx ry rz
  end
  begin
    id 15
    name LeftHand
    direction 0.847511 -0.389379 -0.360707
    length 3.66142
    axis 7.65593 21.1436 -24.6758 xyz
    dof rx ry rz
  end
  begin
    id 16
    name RightShoulderDummy
    direction -0.692546 0.541855 0.476208
    length 2.49352
    axis 42.8809 47.8308 -3.36039 xyz
  end
  begin
    id 17
    name RightShoulder
    direction -0.870808 -0.316653 0.376065
    length 4.48602
    axis 141.571 51.133 -100.254 xyz
    dof rx ry rz
  end
  begin
    id 18
    name RightArm
    direction 0.366897 -0.87275 0.322015
    length 10.1142
    axis 92.3258 71.2036 138.917 xyz
    dof rx ry rz
  end
  begin
    id 19
    name RightForeArm
    direction 0.702487 -0.694568 0.155197
    length 9.39835
    axis 153.863 41.5092 -176.604 xyz
    dof rx ry rz
  end
  begin
    id 20
    name RightHand
    direction 0.79502 -0.601276 0.0800636
    length 3.66142
    axis 154.247 4.59222 142.9 xyz
    dof rx ry rz
  end
  begin
    id 21
    name LeftUpLegDummy
    direction 0.65628 -0.754516 0.00165102
    length 4.76919
    axis 0 0 0 xyz
  end
  begin
    id 22
    name LeftUpLeg
    direction -0.1277 -0.689368 0.713067
    length 17.9961
    axis -48.3385 -17.8675 0.791927 xyz
    dof rx ry rz
  end
  begin
    id 23
    name LeftLeg
    direction 0.109849 -0.991246 -0.0732378
    length 13.3386
    axis -2.05791 -7.30784 1.72042 xyz
    dof rx ry rz
  end
  begin
    id 24
    name LeftFoot
    direction 0.0448355 -0.272614 0.961078
    length 5.86697
    axis -18.7733 -7.89606 10.2113 xyz
    dof rx ry rz
  end
  begin
    id 25
    name LeftToes
    direction -0.18506 0.293668 0.937823
    length 4.75197
    axis 71.2267 -7.89606 10.2113 xyz
    dof rx ry rz
  end
:hierarchy
  begin
    root RightUpLegDummy SpineDummy LeftUpLegDummy
    RightUpLegDummy RightUpLeg
    RightUpLeg RightLeg
    RightLeg RightFoot
    RightFoot RightToes
    SpineDummy Spine
    Spine Spine1
    Spine1 HEadDummy LeftShoulder1Dummy RightShoulderDummy
    HEadDummy HEad
    LeftShoulder1Dummy LeftShoulder1
    LeftShoulder1 LeftArm
    LeftArm LeftForeArm
    LeftForeArm LeftHand
    RightShoulderDummy RightShoulder
    RightShoulder RightArm
    RightArm RightForeArm
    RightForeArm RightHand
    LeftUpLegDummy LeftUpLeg
    LeftUpLeg LeftLeg
    LeftLeg LeftFoot
    LeftFoot LeftToes
  end

:SAMPLES-PER-SECOND 30
:FULLY-SPECIFIED
:DEGREES
551
root  1.80475 36.7607 -5.56575 173.211 6.74081 -179.084
RightUpLeg  -0.762033 19.5149 8.77308
RightLeg  -76.1004 -12.7189 -2.17954
RightFoot  23.134 2.35907 -12.7598
RightToes  -1.27222e-014 -6.36111e-015 6.36111e-015
Spine  -23.3737 -22.7634 -11.5636
Spine1  7.09554 -19.3126 70.3112
HEad  -10.0679 14.0659 -26.0092
LeftShoulder1  6.36111e-015 -1.33558e-015 6.49777e-015
LeftArm  22.7028 -28.0371 -39.755
LeftForeArm  -16.4842 -43.924 10.3173
LeftHand  -1.03143 -0.886165 -9.29174
RightShoulder  -4.77083e-015 -6.36111e-015 -3.18055e-015
RightArm  41.0746 -27.2605 -6.9826
RightForeArm  -52.9431 5.86019 -27.8777
RightHand  0.0603152 3.36259 -6.39376
LeftUpLeg  40.4355 10.5804 6.77808
LeftLeg  23.4108 4.69761 5.47702
LeftFoot  12.0485 4.47038 -10.8447
LeftToes  9.54166e-015 4.2066e-011 -8.07781e-011
552
root  2.18964 36.2251 -6.48211 171.664 7.36373 -177.983
RightUpLeg  0.214959 16.805 10.0288
RightLeg  -70.2451 -12.5306 -3.23757
RightFoot  19.9772 3.03287 -13.0684
RightToes  -1.27222e-014 -6.36111e-015 6.36111e-015
Spine  -23.7859 -19.6119 -8.62266
Spine1  10.4127 -18.0054 66.7414
HEad  -10.5223 9.86615 -24.7961
LeftShoulder1  6.36111e-015 -1.33558e-015 6.49777e-015
LeftArm  23.9332 -25.7247 -40.5898
LeftForeArm  -29.7961 -51.979 23.1318
LeftHand  -1.2737 -1.50116 -10.1594
RightShoulder  -4.77083e-015 -6.36111e-015 -3.18055e-015
RightArm  34.925 -22.5477 0.573628
RightForeArm  -58.112 11.1555 -38.8551
RightHand  -0.180498 2.61958 -2.54018
LeftUpLeg  36.0167 11.1018 9.83165
LeftLeg  34.9613 4.76816 8.62226
LeftFoot  15.0167 3.52327 -8.00467
LeftToes  9.54166e-015 4.2066e-011 -8.07781e-011
553
root  2.65806 36.1225 -7.51821 169.38 8.13822 -177.399
RightUpLeg  4.12245 15.4212 11.6251
RightLeg  -67.9553 -12.5081 -3.39653
RightFoot  17.6949 4.22924 -14.4748
RightToes  -1.27222e-014 -6.36111e-015 6.36111e-015
Spine  -23.8451 -17.6551 -7.9564
Spine1  13.009 -16.6137 62.9046
HEad  -9.98154 7.21394 -23.7092
LeftShoulder1  6.36111e-015 -1.33558e-015 6.49777e-015
LeftArm  25.4603 -23.6436 -42.1669
LeftForeArm  -48.9925 -55.8308 41.5636
LeftHand  -1.32252 -1.48159 -10.989
RightShoulder  -4.77083e-015 -6.36111e-015 -3.18055e-015
RightArm  29.6874 -14.4188 8.19419
RightForeArm  -59.9083 14.5727 -47.8649
RightHand  -0.490431 1.28255 2.33414
LeftUpLeg  34.5304 12.4159 14.0057
LeftLeg  41.4307 3.34393 9.18845
LeftFoot  11.2644 3.15252 -7.81874
LeftToes  9.54166e-015 4.2066e-011 -8.07781e-011
554
root  3.08801 36.4212 -8.6797 168.324 6.81241 -176.828
RightUpLeg  8.39217 13.9387 12.4382
RightLeg  -69.2386 -13.0113 -2.36962
RightFoot  15.7814 4.80255 -15.0484
RightToes  -1.27222e-014 -6.36111e-015 6.36111e-015
Spine  -25.686 -15.9424 -6.64091
Spine1  14.176 -15.4376 59.093
HEad  -7.4913 3.80761 -21.3291
LeftShoulder1  6.36111e-015 -1.33558e-015 6.49777e-015
LeftArm  27.6611 -22.964 -45.5685
LeftForeArm  -60.6206 -54.9745 51.3436
LeftHand  -1.60631 -2.5288 -10.7192
RightShoulder  -4.77083e-015 -6.36111e-015 -3.18055e-015
RightArm  26.4129 -7.52536 13.7245
RightForeArm  -56.5372 17.6435 -51.9162
RightHand  -0.993156 0.608146 7.30298
LeftUpLeg  32.5342 12.886 16.8752
LeftLeg  42.8202 1.30683 7.20357
LeftFoot  8.34835 3.16142 -8.42036
LeftToes  9.54166e-015 4.2066e-011 -8.07781e-011
555
root  3.48154 37.0179 -9.92877 169.272 3.5841 -176.349
RightUpLeg  11.6877 12.2135 12.3534
RightLeg  -73.5761 -13.449 -0.893404
RightFoot  15.4273 4.56161 -14.5742
RightToes  -1.27222e-014 -6.36111e-015 6.36111e-015
Spine  -28.9867 -13.94 -5.09809
Spine1  12.617 -13.9924 55.3112
HEad  -2.66779 -2.28307 -17.1287
LeftShoulder1  6.36111e-015 -1.33558e-015 6.49777e-015
LeftArm  31.077 -24.6053 -51.6989
LeftForeArm  -61.4735 -54.8323 52.0061
LeftHand  -1.91677 -3.59048 -10.8115
RightShoulder  -4.77083e-015 -6.36111e-015 -3.18055e-015
RightArm  25.0401 -4.63973 16.6674
RightForeArm  -49.551 20.3058 -49.9982
RightHand  -1.39821 0.601199 10.6563
LeftUpLeg  28.5083 13.2882 18.1994
LeftLeg  39.8199 0.127041 5.22857
LeftFoot  8.78231 3.09144 -8.14615
LeftToes  9.54166e-015 4.2066e-011 -8.07781e-011
556
root  3.8422 37.7985 -11.1577 170.79 0.318187 -176.238
RightUpLeg  14.8638 10.6104 11.9429
RightLeg  -79.8154 -13.3153 0.252246
RightFoot  17.4908 4.01161 -14.0824
RightToes  -1.27222e-014 -6.36111e-015 6.36111e-015
Spine  -31.3275 -11.746 -4.40225
Spine1  8.99633 -12.1218 50.9538
HEad  2.76068 -10.1708 -13.05
LeftShoulder1  6.36111e-015 -1.33558e-015 6.49777e-015
LeftArm  35.3472 -27.4152 -59.7145
LeftForeArm  -57.127 -56.1183 49.6822
LeftHand  -2.19022 -4.37367 -12.0614
RightShoulder  -4.77083e-015 -6.36111e-015 -3.18055e-015
RightArm  24.8466 -4.10253 18.0162
RightForeArm  -40.7677 21.1979 -43.3137
RightHand  -1.41611 0.114529 11.1131
LeftUpLeg  25.1014 14.5235 19.236
LeftLeg  32.9286 -0.69446 3.40454
LeftFoot  8.79921 2.81899 -7.43002
LeftToes  9.54166e-015 4.2066e-011 -8.07781e-011
557
root  4.12034 38.5268 -12.3105 171.671 -2.38675 -175.998
RightUpLeg  18.1513 8.54093 11.4385
RightLeg  -85.5926 -12.7817 0.535991
RightFoot  20.7823 3.59953 -14.1014
RightToes  -1.27222e-014 -6.36111e-015 6.36111e-015
Spine  -32.528 -9.17919 -3.42729
Spine1  6.1211 -10.2639 46.0172
HEad  6.62025 -17.3645 -10.5859
LeftShoulder1  6.36111e-015 -1.33558e-015 6.49777e-015
LeftArm  39.7523 -30.4963 -67.4831
LeftForeArm  -51.1448 -57.357 45.7582
LeftHand  -2.2717 -4.5536 -12.9329
RightShoulder  -4.77083e-015 -6.36111e-015 -3.18055e-015
RightArm  25.0112 -2.71312 19.4324
RightForeArm  -30.7045 20.0287 -34.3258
RightHand  -1.18034 -0.433027 9.61792
LeftUpLeg  24.2313 15.4259 20.4539
LeftLeg  22.7074 -2.94368 0.89001
LeftFoot  7.59277 2.85519 -7.75671
LeftToes  9.54166e-015 4.2066e-011 -8.07781e-011
558
root  4.34674 39.0673 -13.4198 171.746 -5.10425 -175.693
RightUpLeg  21.8005 6.78044 10.9055
RightLeg  -90.1895 -11.9443 0.311155
RightFoot  23.518 3.4396 -14.3963
RightToes  -1.27222e-014 -6.36111e-015 6.36111e-015
Spine  -33.5425 -7.11442 -2.55547
Spine1  5.50367 -8.94506 41.4772
HEad  7.86635 -22.9016 -9.22269
LeftShoulder1  6.36111e-015 -1.33558e-015 6.49777e-015
LeftArm  43.9197 -34.0644 -74.061
LeftForeArm  -43.7779 -57.3026 39.1194
LeftHand  -2.01302 -3.63635 -12.6505
RightShoulder  -4.77083e-015 -6.36111e-015 -3.18055e-015
RightArm  25.6466 0.636617 21.5751
RightForeArm  -21.0177 16.19 -24.9131
RightHand  -0.94146 -0.0903222 7.49764
LeftUpLeg  25.3815 15.1397 20.9625
LeftLeg  9.6109 -5.07394 -0.578128
LeftFoot  7.70626 3.0909 -8.36885
LeftToes  9.54166e-015 4.2066e-011 -8.07781e-011
559
root  4.59788 39.4053 -14.4608 171.818 -8.08945 -175.908
RightUpLeg  25.8336 7.16969 11.1155
RightLeg  -94.8335 -10.8835 0.744241
RightFoot  24.6654 3.30055 -14.4148
RightToes  -1.27222e-014 -6.36111e-015 6.36111e-015
Spine  -34.268 -6.80001 -3.26981
Spine1  5.7992 -8.35934 37.8348
HEad  7.18313 -27.3932 -8.08318
LeftShoulder1  6.36111e-015 -1.33558e-015 6.49777e-015
LeftArm  47.5798 -37.2476 -79.7487
LeftForeArm  -36.0224 -56.0772 31.524
LeftHand  -1.71914 -2.74809 -11.6443
RightShoulder  -4.77083e-015 -6.36111e-015 -3.18055e-015
RightArm  27.6975 4.80069 24.5496
RightForeArm  -14.8498 8.60031 -16.8078
RightHand  -0.750222 0.814118 5.08646
LeftUpLeg  27.0235 14.1951 19.9766
LeftLeg  -5.62649 -4.68129 -1.0755
LeftFoot  7.99461 2.50384 -6.73868
LeftToes  9.54166e-015 4.2066e-011 -8.07781e-011
560
root  4.8142 39.3847 -15.4163 172.051 -11.0548 -176.34
RightUpLeg  29.1352 7.32843 11.2474
RightLeg  -97.8628 -10.3923 0.596303
RightFoot  22.9768 3.46197 -14.3255
RightToes  -1.27222e-014 -6.36111e-015 6.36111e-015
Spine  -33.675 -7.27448 -4.31265
Spine1  4.83239 -8.24949 34.7233
HEad  6.56326 -30.9672 -7.56867
LeftShoulder1  6.36111e-015 -1.33558e-015 6.49777e-015
LeftArm  49.7263 -38.2729 -83.9487
LeftForeArm  -30.0784 -54.3952 25.6093
LeftHand  -1.61451 -2.53784 -10.8195
RightShoulder  -4.77083e-015 -6.36111e-015 -3.18055e-015
RightArm  31.7744 8.73081 29.0245
RightForeArm  -13.0663 -1.74967 -10.9625
RightHand  -0.696202 1.82001 3.43654
LeftUpLeg  28.6637 12.3784 17.9549
LeftLeg  -21.0368 -4.38109 -2.06312
LeftFoot  7.24092 1.47643 -4.06194
LeftToes  9.54166e-015 4.2066e-011 -8.07781e-011
561
root  4.9137 38.9784 -16.2995 171.215 -13.8955 -176.523
RightUpLeg  32.438 6.15619 10.7693
RightLeg  -98.8439 -9.99422 0.901167
RightFoot  18.6931 4.38421 -14.9139
RightToes  -1.27222e-014 -6.36111e-015 6.36111e-015
Spine  -31.0118 -7.54926 -4.13477
Spine1  2.9466 -8.53434 31.7156
HEad  6.67332 -33.3552 -8.11479
LeftShoulder1  6.36111e-015 -1.33558e-015 6.49777e-015
LeftArm  49.9417 -38.1289 -86.3136
LeftForeArm  -25.7471 -51.2709 20.0999
LeftHand  -1.50572 -2.18383 -10.6987
RightShoulder  -4.77083e-015 -6.36111e-015 -3.18055e-015
RightArm  37.0417 11.8962 34.1847
RightForeArm  -14.1069 -12.1159 -7.10666
RightHand  -0.86984 3.13417 3.28014
LeftUpLeg  30.4948 10.2813 15.8574
LeftLeg  -31.9962 -6.61145 -1.14519
LeftFoot  9.0169 1.81079 -4.76403
LeftToes  9.54166e-015 4.2066e-011 -8.07781e-011
562
root  4.95106 38.4089 -17.0878 169.01 -16.7076 -176.643
RightUpLeg  36.5667 4.24115 9.9911
RightLeg  -99.2914 -9.89065 2.59512
RightFoot  13.5122 5.57276 -15.9591
RightToes  -1.27222e-014 -6.36111e-015 6.36111e-015
Spine  -27.1758 -8.11659 -3.66714
Spine1  3.35785 -8.85875 29.0408
HEad  5.12747 -35.5028 -8.04457
LeftShoulder1  6.36111e-015 -1.33558e-015 6.49777e-015
LeftArm  50.7364 -40.7753 -89.659
LeftForeArm  -19.578 -45.2083 12.4544
LeftHand  -1.11165 -1.04739 -9.74312
RightShoulder  -4.77083e-015 -6.36111e-015 -3.18055e-015
RightArm  32.3084 8.7744 27.5114
RightForeArm  -11.4732 -12.1287 -1.94138
RightHand  -0.922594 3.8586 2.71643
LeftUpLeg  31.0299 9.76415 14.4656
LeftLeg  -32.7748 -10.27 2.09333
LeftFoot  13.446 3.66088 -8.61453
LeftToes  9.54166e-015 4.2066e-011 -8.07781e-011
563
root  4.94384 37.8118 -17.7939 167.862 -19.19 -176.658
RightUpLeg  37.4426 2.77117 10.3943
RightLeg  -95.6986 -11.8551 5.4325
RightFoot  8.51226 5.56285 -14.9909
RightToes  -1.27222e-014 -6.36111e-015 6.36111e-015
Spine  -24.8224 -8.4029 -3.66242
Spine1  6.95978 -8.44862 27.4686
HEad  -0.330656 -38.6134 -5.14537
LeftShoulder1  6.36111e-015 -1.33558e-015 6.49777e-015
LeftArm  55.963 -46.9745 -97.2222
LeftForeArm  -12.5856 -35.4401 4.80164
LeftHand  -0.368578 1.06403 -8.44165
RightShoulder  -4.77083e-015 -6.36111e-015 -3.18055e-015
RightArm  20.526 -4.43969 10.647
RightForeArm  -5.58315 -6.16176 1.99412
RightHand  -0.290758 2.30434 -0.9594
LeftUpLeg  28.4956 5.48754 11.1069
LeftLeg  -25.0617 -10.4554 0.332959
LeftFoot  16.9713 5.23411 -11.329
LeftToes  9.54166e-015 4.2066e-011 -8.07781e-011
564
root  4.84132 37.2278 -18.4881 169.091 -20.6136 -177.252
RightUpLeg  32.681 4.85105 12.8912
RightLeg  -84.7362 -15.2926 9.84038
RightFoot  6.57593 3.76309 -10.9314
RightToes  -1.27222e-014 -6.36111e-015 6.36111e-015
Spine  -23.4699 -8.85267 -4.93416
Spine1  10.5143 -7.66607 26.9904
HEad  -7.79437 -41.2816 -0.563215
LeftShoulder1  6.36111e-015 -1.33558e-015 6.49777e-015
LeftArm  61.1266 -51.4089 -103.447
LeftForeArm  -9.13095 -24.7248 0.599721
LeftHand  0.249329 3.09574 -8.50832
RightShoulder  -4.77083e-015 -6.36111e-015 -3.18055e-015
RightArm  19.4837 -16.0978 2.21752
RightForeArm  -11.3157 -13.0591 -2.96322
RightHand  1.05798 0.414484 -8.83838
LeftUpLeg  23.9757 5.71554 11.0067
LeftLeg  -16.1666 -11.945 -0.419485
LeftFoot  15.6327 5.424 -12.0879
LeftToes  9.54166e-015 4.2066e-011 -8.07781e-011
